<svg xmlns="http://www.w3.org/2000/svg" width="15.343" height="15.343" viewBox="0 0 15.343 15.343">
    <g id="add" transform="rotate(45 3.837 9.26)">
        <g id="Group_1272" data-name="Group 1272" transform="translate(0 .001)">
            <path id="Path_1025" fill="#ed6c7d" d="M10.261 4.669H6.182V.59A.732.732 0 0 0 5.425 0a.732.732 0 0 0-.757.59v4.079H.589A.732.732 0 0 0 0 5.426a.732.732 0 0 0 .589.757h4.079v4.079a.732.732 0 0 0 .757.589.732.732 0 0 0 .757-.589V6.183h4.079a.732.732 0 0 0 .589-.757.732.732 0 0 0-.589-.757z" data-name="Path 1025" transform="translate(0 -.001)"/>
        </g>
    </g>
</svg>
