<svg xmlns="http://www.w3.org/2000/svg" id="add" width="31.906" height="31.906" viewBox="0 0 31.906 31.906">
    <g id="Group_1" data-name="Group 1">
        <path id="Path_1" fill="#fff" d="M30.175 13.728h-12v-12A2.152 2.152 0 0 0 15.953 0a2.152 2.152 0 0 0-2.226 1.731v12h-12A2.152 2.152 0 0 0 0 15.954a2.152 2.152 0 0 0 1.731 2.226h12v12a2.152 2.152 0 0 0 2.226 1.731 2.152 2.152 0 0 0 2.226-1.731v-12h12a2.152 2.152 0 0 0 1.731-2.226 2.152 2.152 0 0 0-1.739-2.226z" data-name="Path 1" transform="translate(0 -.001)"/>
    </g>
</svg>
