<svg xmlns="http://www.w3.org/2000/svg" width="33.504" height="34.657" viewBox="0 0 33.504 34.657">
    <g id="connections" transform="translate(-7.3 -6.4)">
        <path id="Path_1" fill="#fff" d="M36.8 28.442A4.051 4.051 0 0 0 33.615 30L28.6 27.153a6.719 6.719 0 0 0 0-5.29l4.951-2.849a2.82 2.82 0 0 0 2.17.95 2.916 2.916 0 1 0-2.921-2.916 3.436 3.436 0 0 0 .136.882l-5.019 2.916a7.183 7.183 0 0 0-.678-.814 6.286 6.286 0 0 0-3.865-1.832v-3.865a3.99 3.99 0 0 0-.61-7.935 3.966 3.966 0 0 0-4 4 4.009 4.009 0 0 0 3.391 3.934V18.2a5.946 5.946 0 0 0-3.866 1.831 7.183 7.183 0 0 0-.678.814l-3.527-2.035a3.969 3.969 0 0 0 .136-.882 2.916 2.916 0 1 0-2.92 2.918 3.071 3.071 0 0 0 2.17-.95L17 21.931a6.719 6.719 0 0 0 0 5.29l-2.577 1.492A3.968 3.968 0 0 0 7.3 31.155a4 4 0 1 0 8 0 3.336 3.336 0 0 0-.271-1.424l2.577-1.492a7.183 7.183 0 0 0 .678.814 6.286 6.286 0 0 0 3.866 1.831v4.408a2.916 2.916 0 1 0 1.221 0v-4.408a5.946 5.946 0 0 0 3.866-1.831 7.183 7.183 0 0 0 .678-.814L33 31.155a4.259 4.259 0 0 0-.2 1.289 4 4 0 1 0 4-4z" data-name="Path 1"/>
    </g>
</svg>
