<svg xmlns="http://www.w3.org/2000/svg" width="27.236" height="39.615" viewBox="0 0 27.236 39.615">
    <defs>
        <style>
            .cls-2{fill:#fff}
        </style>
    </defs>
    <g id="document" opacity="0.4" transform="translate(6.331)">
        <path id="Subtraction_2" d="M-2082.478-213.576h-27.236v-26.51l8.153-8.153h11.592a3.347 3.347 0 0 1 .062.619v15.475a1.239 1.239 0 0 1-1.238 1.238 1.24 1.24 0 0 1-1.238-1.238v-11.142h-2.476v11.142a3.719 3.719 0 0 0 3.714 3.714 3.718 3.718 0 0 0 3.713-3.714v-15.475a5.1 5.1 0 0 0-.037-.619h4.99zm-24.76-19.808v2.476h2.476v-2.476zm0-4.952v2.476h2.476v-2.476h-2.476z" class="cls-2" data-name="Subtraction 2" transform="translate(2103.382 253.192)"/>
        <path id="Path_1039" fill="#c4c4c4" d="M3.327 81.719l-7.941 7.941h7.941zm0 0" data-name="Path 1039" transform="translate(-1.612 -76.66)"/>
        <path id="Path_1043" d="M182.833 4.952a3.1 3.1 0 0 0-6.066 0h-2.5a5.568 5.568 0 0 1 11.068 0c.041-.045-2.523-.012-2.502 0z" class="cls-2" data-name="Path 1043" transform="translate(-169.419)"/>
    </g>
</svg>
