<svg xmlns="http://www.w3.org/2000/svg" width="32.613" height="32.613" viewBox="0 0 32.613 32.613">
    <defs>
        <style>
            .cls-2{fill:#fff}
        </style>
    </defs>
    <g id="in_sign" opacity="0.4">
        <g id="Group_1292" data-name="Group 1292">
            <path id="Path_1048" d="M9.038 7C7.781 7 7 7.976 7 9.548S7.781 12.1 9.038 12.1s2.038-.976 2.038-2.548S10.3 7 9.038 7z" class="cls-2" data-name="Path 1048" transform="translate(7.268 7.268)"/>
            <path id="Path_1049" d="M16.307 0a16.307 16.307 0 1 0 16.306 16.307A16.307 16.307 0 0 0 16.307 0zM26.5 17.326a4.059 4.059 0 0 1-7.148 2.65 3.819 3.819 0 0 1-3.045 1.424c-2.4 0-4.077-1.885-4.077-4.586s1.676-4.586 4.077-4.586a3.933 3.933 0 0 1 2.126.611 1.018 1.018 0 0 1 1.951.408v4.077a2.038 2.038 0 1 0 4.077 0v-.593A8.4 8.4 0 0 0 17.4 8.225a8.159 8.159 0 0 0-3.02 16.015 8.217 8.217 0 0 0 5.538-.626 1.021 1.021 0 1 1 .907 1.828 10.106 10.106 0 0 1-4.51 1.058 10.656 10.656 0 0 1-2.387-.273 10.053 10.053 0 0 1-7.593-7.77A10.206 10.206 0 0 1 17.658 6.2 10.445 10.445 0 0 1 26.5 16.733z" class="cls-2" data-name="Path 1049"/>
        </g>
    </g>
</svg>
