<svg xmlns="http://www.w3.org/2000/svg" width="114" height="78" viewBox="0 0 114 78">
    <defs>
        <filter id="Rectangle_37" width="114" height="78" x="0" y="0" filterUnits="userSpaceOnUse">
            <feOffset dy="3"/>
            <feGaussianBlur result="blur" stdDeviation="3"/>
            <feFlood flood-opacity=".278"/>
            <feComposite in2="blur" operator="in"/>
            <feComposite in="SourceGraphic"/>
        </filter>
        <style>
            .cls-5{fill:#fff;opacity:.6}
        </style>
    </defs>
    <g id="menu" transform="translate(15 6)">
        <g filter="url(#Rectangle_37)" transform="translate(-15 -6)">
            <rect id="Rectangle_37-2" width="96" height="60" fill="#acacac" data-name="Rectangle 37" opacity="0.4" rx="8" transform="translate(9 6)"/>
        </g>
        <g id="logo_2" data-name="logo 2" transform="translate(-.294 12.318)">
            <path id="Path_1" stroke="#fff" stroke-width="1.6px" d="M368.591 76.455s4.157-12.393 15.61-11.923 14.59 9.727 14.982 12.707.531 2.569.531 2.569 11.5.715 10.185 11.019-9.887 8.874-9.887 8.874l-31.42.091v-3.523h31.42s6.437.568 6.666-5.443-3.253-7.477-6.964-7.8-3.528-3.221-3.528-3.221-.8-11.789-11.985-11.958-13.465 12.338-13.465 12.338z" data-name="Path 1" transform="translate(-340.357 -64.519)"/>
            <text id="Cloud" fill="#fff" font-family="Baloo-Regular, Baloo" font-size="14px" letter-spacing="0.03em" transform="translate(13.295 28.682)">
                <tspan x="0" y="0">Cloud</tspan>
            </text>
            <text id="BP" fill="#fff" font-family="Orbitron-Black, Orbitron" font-size="13px" font-weight="800" letter-spacing="0.03em" transform="translate(.295 18.682)">
                <tspan x="0" y="0">BP</tspan>
            </text>
        </g>
        <circle id="Ellipse_101" cx="2.5" cy="2.5" r="2.5" class="cls-5" data-name="Ellipse 101" transform="translate(80 18)"/>
        <circle id="Ellipse_102" cx="2.5" cy="2.5" r="2.5" class="cls-5" data-name="Ellipse 102" transform="translate(80 28)"/>
        <circle id="Ellipse_103" cx="2.5" cy="2.5" r="2.5" class="cls-5" data-name="Ellipse 103" transform="translate(80 38)"/>
    </g>
</svg>
