<svg xmlns="http://www.w3.org/2000/svg" width="28.13" height="33.757" viewBox="0 0 28.13 33.757">
    <defs>
        <style>
            .cls-1{fill:#fff}
        </style>
    </defs>
    <g id="notification" transform="translate(-42.675)">
        <g id="Group_1286" data-name="Group 1286" transform="translate(42.675)">
            <g id="Group_1285" data-name="Group 1285">
                <path id="Path_1036" d="M70.7 28.472l-2.41-4.025a11.957 11.957 0 0 1-1.7-6.152v-3.526a9.858 9.858 0 0 0-7.033-9.431V2.813a2.813 2.813 0 0 0-5.626 0v2.525a9.858 9.858 0 0 0-7.033 9.431v3.526a11.965 11.965 0 0 1-1.7 6.151l-2.415 4.025a.7.7 0 0 0 .6 1.066H70.1a.7.7 0 0 0 .6-1.065z" class="cls-1" data-name="Path 1036" transform="translate(-42.675)"/>
            </g>
        </g>
        <g id="Group_1288" data-name="Group 1288" transform="translate(52.31 30.944)">
            <g id="Group_1287" data-name="Group 1287">
                <path id="Path_1037" d="M188.815 469.333a4.893 4.893 0 0 0 8.858 0z" class="cls-1" data-name="Path 1037" transform="translate(-188.815 -469.333)"/>
            </g>
        </g>
    </g>
</svg>
