<svg xmlns="http://www.w3.org/2000/svg" width="33.757" height="33.757" viewBox="0 0 33.757 33.757">
    <path id="settings_2_" fill="#fff" d="M32.6 13.633h-3.278a1.908 1.908 0 0 1-1.35-3.258l2.319-2.319a1.156 1.156 0 0 0 0-1.635l-2.956-2.955a1.156 1.156 0 0 0-1.635 0l-2.318 2.319a1.908 1.908 0 0 1-3.258-1.35V1.156A1.156 1.156 0 0 0 18.968 0h-4.18a1.156 1.156 0 0 0-1.156 1.156v3.28a1.908 1.908 0 0 1-3.258 1.35l-2.318-2.32a1.156 1.156 0 0 0-1.635 0L3.466 6.422a1.156 1.156 0 0 0 0 1.635l2.319 2.319a1.908 1.908 0 0 1-1.35 3.258H1.156A1.156 1.156 0 0 0 0 14.789v4.18a1.156 1.156 0 0 0 1.156 1.156h3.279a1.908 1.908 0 0 1 1.35 3.258L3.466 25.7a1.156 1.156 0 0 0 0 1.635l2.956 2.956a1.156 1.156 0 0 0 1.635 0l2.319-2.319a1.908 1.908 0 0 1 3.258 1.35V32.6a1.156 1.156 0 0 0 1.156 1.156h4.18a1.156 1.156 0 0 0 1.154-1.156v-3.278a1.908 1.908 0 0 1 3.258-1.35l2.318 2.319a1.156 1.156 0 0 0 1.635 0l2.956-2.956a1.156 1.156 0 0 0 0-1.635l-2.319-2.319a1.908 1.908 0 0 1 1.35-3.258H32.6a1.156 1.156 0 0 0 1.156-1.156v-4.18a1.156 1.156 0 0 0-1.156-1.154zm-15.722 8.439a5.193 5.193 0 1 1 5.193-5.193 5.194 5.194 0 0 1-5.193 5.193z" data-name="settings (2)"/>
</svg>
