<svg xmlns="http://www.w3.org/2000/svg" width="36.853" height="35.543" viewBox="0 0 36.853 35.543">
    <defs>
        <style>
            .cls-2{fill:#fff}
        </style>
    </defs>
    <g id="signed" opacity="0.4" transform="translate(-4 -4)">
        <g id="Group_1293" data-name="Group 1293" transform="translate(4 4)">
            <path id="Path_1050" d="M36.886 47.944l-.462 2.776 2.176-1.788z" class="cls-2" data-name="Path 1050" transform="translate(-15.845 -20.053)"/>
            <rect id="Rectangle_967" width="19" height="3" class="cls-2" data-name="Rectangle 967" rx=".5" transform="translate(4 3.65)"/>
            <path id="Path_1051" d="M28.264 33.274l-4.189 3.446a.635.635 0 0 1-1.029-.594l.889-5.35a.626.626 0 0 1 .072-.214l6.647-11.5V4.635A.635.635 0 0 0 30.022 4H4.635A.635.635 0 0 0 4 4.635v34.273a.635.635 0 0 0 .635.635h25.387a.635.635 0 0 0 .635-.635v-9.69L28.413 33.1a.638.638 0 0 1-.149.17zm-3.319-6.426h-10.79v-1.269h10.79zm1.9-3.808h-12.69v-1.269h12.694zm.635-3.808H14.155v-1.269h13.329zm0-3.808H14.155v-1.269h13.329zM6.539 10.982V7.173a.635.635 0 0 1 .635-.635h20.31a.635.635 0 0 1 .635.635v3.808a.635.635 0 0 1-.635.635H7.173a.635.635 0 0 1-.634-.634zm.635 12.059v-1.27h5.712v1.269zm5.712 2.539v1.269H7.173v-1.27zm-5.713-6.347v-1.27h5.712v1.269zm0-3.808v-1.27h5.712v1.269zm0 13.963h5.712v1.269H7.173zm12.213 7.6a.633.633 0 0 1-.755-.415l-.859-2.577-1.819 2.729a.622.622 0 0 1-.568.281.635.635 0 0 1-.528-.35l-.811-1.617-1.287 1.711-1.016-.762 1.9-2.539a.635.635 0 0 1 1.079.1l.78 1.561 1.932-2.9a.635.635 0 0 1 1.13.152l1.084 3.25 1.968-.492.307 1.231zm3.02-6.328h-8.251v-1.272h8.251z" class="cls-2" data-name="Path 1051" transform="translate(-4 -4)"/>
            <path id="Rectangle_968" d="M0 0H19.041V2.538H0z" class="cls-2" data-name="Rectangle 968" transform="rotate(-59.991 33.8 -5.239)"/>
            <path id="Path_1052" d="M56.687 15.9l-1.1-.635a.635.635 0 0 0-.866.232l-.952 1.65 2.2 1.269.952-1.65a.635.635 0 0 0-.232-.868z" class="cls-2" data-name="Path 1052" transform="translate(-22.181 -8.084)"/>
            <path id="Path_1053" d="M58.741 23.022l-4.443 7.7-1.1-.635 4.125-7.147-1.32-.762.628-1.1 1.872 1.079a.626.626 0 0 1 .235.863z" class="cls-2" data-name="Path 1053" transform="translate(-21.973 -10.239)"/>
        </g>
    </g>
</svg>
