<svg xmlns="http://www.w3.org/2000/svg" width="53.174" height="34.654" viewBox="0 0 53.174 34.654">
    <g id="template" opacity="0.4" transform="translate(-5 -20.673)">
        <path id="Path_1054" fill="#fff" d="M49.2 28.438l-12.092 1.439v-1.248L49.2 27.19zm-2.551 3.016l-9.538.677v1.243l9.538-.677zm.894 3.927l-10.432.251v1.24l10.432-.251zm1.657 4.036l-12.089-.288v1.24l12.089.288zm-.822 4.009l-11.267-.8v1.242l11.267.8zm-4.013 3.56l-7.254-.864v1.248l7.254.864zm13.809-26.313v34.654L56.058 55v.326L53.943 55v.326l-20.854-3.208v-11.5l-2.624 2v-2.956h-4.611v12.456L5 55.327V20.673l20.854 3.208v12.457h4.611v-2.965l2.624 2v-11.5l20.854-3.208V21l2.115-.326V21zM9.747 32.509l9.538.677v-1.242l-9.538-.677zm0 4.073l10.432.251v-1.239l-10.432-.251zM17 46.7l-7.255.864v1.246L17 47.945zm4.013-4.008l-11.268.8v1.242l11.268-.8zm.821-3.561l-12.089.288v1.239l12.089-.288zm0-10.5L9.747 27.19v1.248l12.089 1.439zm4.018 11.033v-3.327h-2.2v3.325zm26.881-17.58L34.3 24.918V36.3l2.225 1.7-2.225 1.7v11.382l18.435 2.837V22.082zm2.116 0l-.906.139v31.556l.906.139zm2.116 0l-.907.139v31.556l.907.139z" data-name="Path 1054"/>
    </g>
</svg>
